<mxfile host="app.diagrams.net" modified="2023-10-11T07:24:06.597Z" agent="Mozilla/5.0 (X11; Linux x86_64; rv:109.0) Gecko/20100101 Firefox/115.0" version="22.0.4" etag="0sjPoJia_vi2kVOkQl4c" type="github">
  <diagram name="Page-1" id="XQQZeDN9lT_YvnE_bVN6">
    <mxGraphModel>
      <root>
        <mxCell id="0" />
        <mxCell id="1" parent="0" />
      </root>
    </mxGraphModel>
  </diagram>
</mxfile>
